{
  "accessors": [
    {
      "bufferView": 2,
      "componentType": 5126,
      "count": 760,
      "max": [
        41.68267822265625,
        30.39703369140625,
        39.64258575439453
      ],
      "min": [
        -41.68267822265625,
        0.0,
        -39.642581939697266
      ],
      "type": "VEC3"
    },
    {
      "bufferView": 2,
      "byteOffset": 9120,
      "componentType": 5126,
      "count": 760,
      "max": [
        1.0,
        1.0,
        0.9999045133590698
      ],
      "min": [
        -1.0,
        -1.0,
        -0.9999045133590698
      ],
      "type": "VEC3"
    },
    {
      "bufferView": 3,
      "componentType": 5126,
      "count": 760,
      "max": [
        0.9999997615814209,
        0.8652397394180298,
        1.0,
        1.0
      ],
      "min": [
        -0.9510566592216492,
        -0.8634604811668396,
        -1.0,
        1.0
      ],
      "type": "VEC4"
    },
    {
      "bufferView": 1,
      "componentType": 5126,
      "count": 760,
      "max": [
        0.99755859375,
        0.8478221893310547
      ],
      "min": [
        0.00244140625,
        0.0013802945613861084
      ],
      "type": "VEC2"
    },
    {
      "bufferView": 0,
      "componentType": 5125,
      "count": 2808,
      "type": "SCALAR"
    },
    {
      "bufferView": 2,
      "byteOffset": 18240,
      "componentType": 5126,
      "count": 100,
      "max": [
        2.3492226600646973,
        0.8424150943756104,
        3.7743256092071533
      ],
      "min": [
        0.40637969970703125,
        0.20349735021591187,
        1.1639323234558105
      ],
      "type": "VEC3"
    },
    {
      "bufferView": 2,
      "byteOffset": 19440,
      "componentType": 5126,
      "count": 100,
      "max": [
        0.9444038271903992,
        0.9974371790885925,
        0.9441275000572205
      ],
      "min": [
        -0.9035735130310059,
        -0.9875964522361755,
        -0.9822993874549866
      ],
      "type": "VEC3"
    },
    {
      "bufferView": 3,
      "byteOffset": 12160,
      "componentType": 5126,
      "count": 100,
      "max": [
        0.9605655670166016,
        0.9988805055618286,
        0.8512464165687561,
        1.0
      ],
      "min": [
        -0.9863725900650024,
        -0.9999615550041199,
        -0.6941869854927063,
        1.0
      ],
      "type": "VEC4"
    },
    {
      "bufferView": 1,
      "byteOffset": 6080,
      "componentType": 5126,
      "count": 100,
      "max": [
        0.3733424246311188,
        0.6376634836196899
      ],
      "min": [
        0.32919058203697205,
        0.47913119196891785
      ],
      "type": "VEC2"
    },
    {
      "bufferView": 0,
      "byteOffset": 11232,
      "componentType": 5125,
      "count": 534,
      "type": "SCALAR"
    },
    {
      "bufferView": 2,
      "byteOffset": 20640,
      "componentType": 5126,
      "count": 443,
      "max": [
        -0.6737861633300781,
        0.6350738406181335,
        3.34023380279541
      ],
      "min": [
        -2.227832794189453,
        0.03511928766965866,
        1.8452262878417969
      ],
      "type": "VEC3"
    },
    {
      "bufferView": 2,
      "byteOffset": 25956,
      "componentType": 5126,
      "count": 443,
      "max": [
        0.9960041046142578,
        0.9861927628517151,
        0.997606098651886
      ],
      "min": [
        -0.9823194146156311,
        -0.9867466688156128,
        -0.9931652545928955
      ],
      "type": "VEC3"
    },
    {
      "bufferView": 3,
      "byteOffset": 13760,
      "componentType": 5126,
      "count": 443,
      "max": [
        0.9962167739868164,
        0.9098217487335205,
        0.9714037179946899,
        1.0
      ],
      "min": [
        -0.9960119724273682,
        -0.8980548977851868,
        -0.9957950711250305,
        1.0
      ],
      "type": "VEC4"
    },
    {
      "bufferView": 1,
      "byteOffset": 6880,
      "componentType": 5126,
      "count": 443,
      "max": [
        0.17757311463356018,
        0.3715871274471283
      ],
      "min": [
        0.021271944046020508,
        0.3152990937232971
      ],
      "type": "VEC2"
    },
    {
      "bufferView": 0,
      "byteOffset": 13368,
      "componentType": 5125,
      "count": 2334,
      "type": "SCALAR"
    },
    {
      "bufferView": 2,
      "byteOffset": 31272,
      "componentType": 5126,
      "count": 64,
      "max": [
        -0.4051971435546875,
        3.0569796562194824,
        2.0937376022338867
      ],
      "min": [
        -3.855072021484375,
        0.9326965808868408,
        -1.4589290618896484
      ],
      "type": "VEC3"
    },
    {
      "bufferView": 2,
      "byteOffset": 32040,
      "componentType": 5126,
      "count": 64,
      "max": [
        0.9498224258422852,
        0.9512655138969421,
        0.9144533276557922
      ],
      "min": [
        -0.8903465270996094,
        -0.910994291305542,
        -0.841296374797821
      ],
      "type": "VEC3"
    },
    {
      "bufferView": 3,
      "byteOffset": 20848,
      "componentType": 5126,
      "count": 64,
      "max": [
        0.9790565967559814,
        0.9838383197784424,
        0.9797271490097046,
        1.0
      ],
      "min": [
        -0.9539623856544495,
        -0.9995236992835999,
        -0.965946614742279,
        1.0
      ],
      "type": "VEC4"
    },
    {
      "bufferView": 1,
      "byteOffset": 10424,
      "componentType": 5126,
      "count": 64,
      "max": [
        0.1813698559999466,
        0.5859313011169434
      ],
      "min": [
        0.15496893227100372,
        0.40111005306243896
      ],
      "type": "VEC2"
    },
    {
      "bufferView": 0,
      "byteOffset": 22704,
      "componentType": 5125,
      "count": 324,
      "type": "SCALAR"
    },
    {
      "bufferView": 2,
      "byteOffset": 32808,
      "componentType": 5126,
      "count": 100,
      "max": [
        0.12601470947265625,
        3.7992780208587646,
        2.334336280822754
      ],
      "min": [
        -3.7659339904785156,
        1.4180951118469238,
        -1.623753547668457
      ],
      "type": "VEC3"
    },
    {
      "bufferView": 2,
      "byteOffset": 34008,
      "componentType": 5126,
      "count": 100,
      "max": [
        0.9715759754180908,
        0.9708828330039978,
        0.8470783829689026
      ],
      "min": [
        -0.9945900440216064,
        -0.9553349614143372,
        -0.9469109177589417
      ],
      "type": "VEC3"
    },
    {
      "bufferView": 3,
      "byteOffset": 21872,
      "componentType": 5126,
      "count": 100,
      "max": [
        0.9728342294692993,
        0.9836960434913635,
        0.9908056259155273,
        1.0
      ],
      "min": [
        -0.951673686504364,
        -0.9886230826377869,
        -0.9420169591903687,
        1.0
      ],
      "type": "VEC4"
    },
    {
      "bufferView": 1,
      "byteOffset": 10936,
      "componentType": 5126,
      "count": 100,
      "max": [
        0.1008567214012146,
        0.608008623123169
      ],
      "min": [
        0.04323489964008331,
        0.40111005306243896
      ],
      "type": "VEC2"
    },
    {
      "bufferView": 0,
      "byteOffset": 24000,
      "componentType": 5125,
      "count": 534,
      "type": "SCALAR"
    },
    {
      "bufferView": 2,
      "byteOffset": 35208,
      "componentType": 5126,
      "count": 562,
      "max": [
        1.3636322021484375,
        3.0446791648864746,
        2.514399528503418
      ],
      "min": [
        -1.3636322021484375,
        0.07543909549713135,
        -1.1518691778182983
      ],
      "type": "VEC3"
    },
    {
      "bufferView": 2,
      "byteOffset": 41952,
      "componentType": 5126,
      "count": 562,
      "max": [
        0.9993845820426941,
        0.9975160360336304,
        0.9950381517410278
      ],
      "min": [
        -0.9956533312797546,
        -0.9857491254806519,
        -0.997158944606781
      ],
      "type": "VEC3"
    },
    {
      "bufferView": 3,
      "byteOffset": 23472,
      "componentType": 5126,
      "count": 562,
      "max": [
        0.999130129814148,
        0.9775932431221008,
        0.9808899760246277,
        1.0
      ],
      "min": [
        -0.9843272566795349,
        -0.9746631979942322,
        -0.9904310703277588,
        1.0
      ],
      "type": "VEC4"
    },
    {
      "bufferView": 1,
      "byteOffset": 11736,
      "componentType": 5126,
      "count": 562,
      "max": [
        0.33475130796432495,
        0.767622709274292
      ],
      "min": [
        0.03608836233615875,
        0.6135753393173218
      ],
      "type": "VEC2"
    },
    {
      "bufferView": 0,
      "byteOffset": 26136,
      "componentType": 5125,
      "count": 2844,
      "type": "SCALAR"
    },
    {
      "bufferView": 2,
      "byteOffset": 48696,
      "componentType": 5126,
      "count": 562,
      "max": [
        1.3636322021484375,
        3.0446791648864746,
        2.514399528503418
      ],
      "min": [
        -1.3636322021484375,
        0.07543909549713135,
        -1.1518691778182983
      ],
      "type": "VEC3"
    },
    {
      "bufferView": 2,
      "byteOffset": 55440,
      "componentType": 5126,
      "count": 562,
      "max": [
        0.9993845820426941,
        0.9975160360336304,
        0.9950381517410278
      ],
      "min": [
        -0.9956533312797546,
        -0.9857491254806519,
        -0.997158944606781
      ],
      "type": "VEC3"
    },
    {
      "bufferView": 3,
      "byteOffset": 32464,
      "componentType": 5126,
      "count": 562,
      "max": [
        0.9993354678153992,
        0.976944088935852,
        0.9814606308937073,
        1.0
      ],
      "min": [
        -0.983762800693512,
        -0.975840151309967,
        -0.9905099868774414,
        1.0
      ],
      "type": "VEC4"
    },
    {
      "bufferView": 1,
      "byteOffset": 16232,
      "componentType": 5126,
      "count": 562,
      "max": [
        0.5795489549636841,
        0.4548378586769104
      ],
      "min": [
        0.2585872411727905,
        0.2898489832878113
      ],
      "type": "VEC2"
    },
    {
      "bufferView": 0,
      "byteOffset": 37512,
      "componentType": 5125,
      "count": 2844,
      "type": "SCALAR"
    },
    {
      "bufferView": 2,
      "byteOffset": 62184,
      "componentType": 5126,
      "count": 562,
      "max": [
        1.3636322021484375,
        3.0446791648864746,
        2.514399528503418
      ],
      "min": [
        -1.3636322021484375,
        0.07543909549713135,
        -1.1518691778182983
      ],
      "type": "VEC3"
    },
    {
      "bufferView": 2,
      "byteOffset": 68928,
      "componentType": 5126,
      "count": 562,
      "max": [
        0.9993845820426941,
        0.9975160360336304,
        0.9950381517410278
      ],
      "min": [
        -0.9956533312797546,
        -0.9857491254806519,
        -0.997158944606781
      ],
      "type": "VEC3"
    },
    {
      "bufferView": 3,
      "byteOffset": 41456,
      "componentType": 5126,
      "count": 562,
      "max": [
        0.999661386013031,
        0.9730799794197083,
        0.9838990569114685,
        1.0
      ],
      "min": [
        -0.9805005788803101,
        -0.9811293482780457,
        -0.9904578328132629,
        1.0
      ],
      "type": "VEC4"
    },
    {
      "bufferView": 1,
      "byteOffset": 20728,
      "componentType": 5126,
      "count": 562,
      "max": [
        0.897804319858551,
        0.4647831916809082
      ],
      "min": [
        0.6245728731155396,
        0.32654714584350586
      ],
      "type": "VEC2"
    },
    {
      "bufferView": 0,
      "byteOffset": 48888,
      "componentType": 5125,
      "count": 2844,
      "type": "SCALAR"
    },
    {
      "bufferView": 2,
      "byteOffset": 75672,
      "componentType": 5126,
      "count": 562,
      "max": [
        1.3636322021484375,
        3.0446791648864746,
        2.514399528503418
      ],
      "min": [
        -1.3636322021484375,
        0.07543909549713135,
        -1.1518691778182983
      ],
      "type": "VEC3"
    },
    {
      "bufferView": 2,
      "byteOffset": 82416,
      "componentType": 5126,
      "count": 562,
      "max": [
        0.9993845820426941,
        0.9975160360336304,
        0.9950381517410278
      ],
      "min": [
        -0.9956533312797546,
        -0.9857491254806519,
        -0.997158944606781
      ],
      "type": "VEC3"
    },
    {
      "bufferView": 3,
      "byteOffset": 50448,
      "componentType": 5126,
      "count": 562,
      "max": [
        0.9983201026916504,
        0.9661701321601868,
        0.9877580404281616,
        1.0
      ],
      "min": [
        -0.9748061895370483,
        -0.9869458079338074,
        -0.9893142580986023,
        1.0
      ],
      "type": "VEC4"
    },
    {
      "bufferView": 1,
      "byteOffset": 25224,
      "componentType": 5126,
      "count": 562,
      "max": [
        0.6117588877677917,
        0.18099504709243774
      ],
      "min": [
        0.32749056816101074,
        0.03407377749681473
      ],
      "type": "VEC2"
    },
    {
      "bufferView": 0,
      "byteOffset": 60264,
      "componentType": 5125,
      "count": 2844,
      "type": "SCALAR"
    }
  ],
  "asset": {
    "extras": {
      "author": "DivyeSh PanchAl (https://sketchfab.com/DivyeSh.PanchAl)",
      "license": "CC-BY-4.0 (http://creativecommons.org/licenses/by/4.0/)",
      "source": "https://sketchfab.com/3d-models/sacrifice-table-99d4eff5fe0544b9bf22b7a0b69cb169",
      "title": "Sacrifice Table"
    },
    "generator": "Sketchfab-12.66.0",
    "version": "2.0"
  },
  "bufferViews": [
    {
      "buffer": 0,
      "byteLength": 71640,
      "name": "floatBufferViews",
      "target": 34963
    },
    {
      "buffer": 0,
      "byteLength": 29720,
      "byteOffset": 71640,
      "byteStride": 8,
      "name": "floatBufferViews",
      "target": 34962
    },
    {
      "buffer": 0,
      "byteLength": 89160,
      "byteOffset": 101360,
      "byteStride": 12,
      "name": "floatBufferViews",
      "target": 34962
    },
    {
      "buffer": 0,
      "byteLength": 59440,
      "byteOffset": 190520,
      "byteStride": 16,
      "name": "floatBufferViews",
      "target": 34962
    }
  ],
  "buffers": [
    {
      "byteLength": 249960,
      "uri": "scene.bin"
    }
  ],
  "images": [
    {
      "uri": "textures/Sacrifice_table_Mat_baseColor.png"
    },
    {
      "uri": "textures/Sacrifice_table_Mat_metallicRoughness.png"
    },
    {
      "uri": "textures/Sacrifice_table_Mat_normal.png"
    }
  ],
  "materials": [
    {
      "doubleSided": true,
      "name": "Sacrifice_table_Mat",
      "normalTexture": {
        "index": 2
      },
      "occlusionTexture": {
        "index": 1
      },
      "pbrMetallicRoughness": {
        "baseColorTexture": {
          "index": 0
        },
        "metallicRoughnessTexture": {
          "index": 1
        }
      }
    }
  ],
  "meshes": [
    {
      "name": "Table_low_Sacrifice_table_Mat_0",
      "primitives": [
        {
          "attributes": {
            "NORMAL": 1,
            "POSITION": 0,
            "TANGENT": 2,
            "TEXCOORD_0": 3
          },
          "indices": 4,
          "material": 0,
          "mode": 4
        }
      ]
    },
    {
      "name": "Bone_1_low_Sacrifice_table_Mat_0",
      "primitives": [
        {
          "attributes": {
            "NORMAL": 6,
            "POSITION": 5,
            "TANGENT": 7,
            "TEXCOORD_0": 8
          },
          "indices": 9,
          "material": 0,
          "mode": 4
        }
      ]
    },
    {
      "name": "Jaw_low_Sacrifice_table_Mat_0",
      "primitives": [
        {
          "attributes": {
            "NORMAL": 11,
            "POSITION": 10,
            "TANGENT": 12,
            "TEXCOORD_0": 13
          },
          "indices": 14,
          "material": 0,
          "mode": 4
        }
      ]
    },
    {
      "name": "Bone_2_low_Sacrifice_table_Mat_0",
      "primitives": [
        {
          "attributes": {
            "NORMAL": 16,
            "POSITION": 15,
            "TANGENT": 17,
            "TEXCOORD_0": 18
          },
          "indices": 19,
          "material": 0,
          "mode": 4
        }
      ]
    },
    {
      "name": "Bone_3_low_Sacrifice_table_Mat_0",
      "primitives": [
        {
          "attributes": {
            "NORMAL": 21,
            "POSITION": 20,
            "TANGENT": 22,
            "TEXCOORD_0": 23
          },
          "indices": 24,
          "material": 0,
          "mode": 4
        }
      ]
    },
    {
      "name": "Skull_low_Sacrifice_table_Mat_0",
      "primitives": [
        {
          "attributes": {
            "NORMAL": 26,
            "POSITION": 25,
            "TANGENT": 27,
            "TEXCOORD_0": 28
          },
          "indices": 29,
          "material": 0,
          "mode": 4
        }
      ]
    },
    {
      "name": "Skull2_low_Sacrifice_table_Mat_0",
      "primitives": [
        {
          "attributes": {
            "NORMAL": 31,
            "POSITION": 30,
            "TANGENT": 32,
            "TEXCOORD_0": 33
          },
          "indices": 34,
          "material": 0,
          "mode": 4
        }
      ]
    },
    {
      "name": "Skull3_low_Sacrifice_table_Mat_0",
      "primitives": [
        {
          "attributes": {
            "NORMAL": 36,
            "POSITION": 35,
            "TANGENT": 37,
            "TEXCOORD_0": 38
          },
          "indices": 39,
          "material": 0,
          "mode": 4
        }
      ]
    },
    {
      "name": "Skull4_low_Sacrifice_table_Mat_0",
      "primitives": [
        {
          "attributes": {
            "NORMAL": 41,
            "POSITION": 40,
            "TANGENT": 42,
            "TEXCOORD_0": 43
          },
          "indices": 44,
          "material": 0,
          "mode": 4
        }
      ]
    }
  ],
  "nodes": [
    {
      "children": [
        1
      ],
      "matrix": [
        1.0,
        0.0,
        0.0,
        0.0,
        0.0,
        2.220446049250313e-16,
        -1.0,
        0.0,
        0.0,
        1.0,
        2.220446049250313e-16,
        0.0,
        0.0,
        0.0,
        0.0,
        1.0
      ],
      "name": "Sketchfab_model"
    },
    {
      "children": [
        2
      ],
      "matrix": [
        1.0,
        0.0,
        0.0,
        0.0,
        0.0,
        0.0,
        1.0,
        0.0,
        0.0,
        -1.0,
        0.0,
        0.0,
        0.0,
        0.0,
        0.0,
        1.0
      ],
      "name": "eb28e7b34921491bacb1948dbe12392d.fbx"
    },
    {
      "children": [
        3
      ],
      "name": "RootNode"
    },
    {
      "children": [
        4,
        6,
        8,
        10,
        12,
        14,
        16,
        18,
        20
      ],
      "matrix": [
        1.7791632413864136,
        0.0,
        0.0,
        0.0,
        0.0,
        1.7791632413864136,
        0.0,
        0.0,
        0.0,
        0.0,
        1.7791632413864136,
        0.0,
        0.0,
        30.7069091796875,
        0.0,
        1.0
      ],
      "name": "ST_low"
    },
    {
      "children": [
        5
      ],
      "matrix": [
        0.5620619654655457,
        0.0,
        0.0,
        0.0,
        0.0,
        0.5620619654655457,
        0.0,
        0.0,
        0.0,
        0.0,
        0.5620619654655457,
        0.0,
        -5.505714157152952e-21,
        -17.259185791015625,
        -2.117582368135751e-22,
        1.0
      ],
      "name": "Table_low"
    },
    {
      "mesh": 0,
      "name": "Table_low_Sacrifice_table_Mat_0"
    },
    {
      "children": [
        7
      ],
      "matrix": [
        1.0,
        0.0,
        0.0,
        0.0,
        0.0,
        0.9754336872986606,
        -0.22029326290864804,
        0.0,
        0.0,
        0.22029326290864804,
        0.9754336872986606,
        0.0,
        0.0,
        -1.0629690885543823,
        -3.3817665576934814,
        1.0
      ],
      "name": "Bone_1_low"
    },
    {
      "mesh": 1,
      "name": "Bone_1_low_Sacrifice_table_Mat_0"
    },
    {
      "children": [
        9
      ],
      "matrix": [
        0.24333526391152216,
        0.0,
        -0.9699422402066579,
        0.0,
        0.0,
        1.0,
        0.0,
        0.0,
        0.9699422402066579,
        0.0,
        0.24333526391152216,
        0.0,
        -1.9946978092193604,
        -0.22016189992427826,
        -1.0099107027053833,
        1.0
      ],
      "name": "Jaw_low"
    },
    {
      "mesh": 2,
      "name": "Jaw_low_Sacrifice_table_Mat_0"
    },
    {
      "children": [
        11
      ],
      "matrix": [
        0.8698689532652701,
        -0.4137268568088883,
        0.26862258300489333,
        0.0,
        0.35208531896175754,
        0.902148441707043,
        0.24932732962343188,
        0.0,
        -0.3454908570668414,
        -0.12230403542235066,
        0.930418073020203,
        0.0,
        -0.8698895573616028,
        -2.651327133178711,
        -0.5907765030860901,
        1.0
      ],
      "name": "Bone_2_low"
    },
    {
      "mesh": 3,
      "name": "Bone_2_low_Sacrifice_table_Mat_0"
    },
    {
      "children": [
        13
      ],
      "matrix": [
        0.90943144696103,
        -0.4158538725061573,
        0.0,
        0.0,
        0.4158538725061573,
        0.90943144696103,
        0.0,
        0.0,
        0.0,
        0.0,
        1.0,
        0.0,
        -1.2496634721755981,
        -2.9409291744232178,
        -2.3877344131469727,
        1.0
      ],
      "name": "Bone_3_low"
    },
    {
      "mesh": 4,
      "name": "Bone_3_low_Sacrifice_table_Mat_0"
    },
    {
      "children": [
        15
      ],
      "matrix": [
        0.941710365113596,
        -0.33545436603846196,
        -0.025533439708574357,
        0.0,
        0.3353311270789709,
        0.9420564570691788,
        -0.009092134304634486,
        0.0,
        0.02710393789774676,
        2.6020852139652106e-18,
        0.9996326207914761,
        0.0,
        8.898380279541016,
        -0.4123312532901764,
        5.2050604820251465,
        1.0
      ],
      "name": "Skull_low"
    },
    {
      "mesh": 5,
      "name": "Skull_low_Sacrifice_table_Mat_0"
    },
    {
      "children": [
        17
      ],
      "matrix": [
        0.941710365113596,
        -0.33545436603846196,
        -0.025533439708574357,
        0.0,
        0.3353311270789709,
        0.9420564570691788,
        -0.009092134304634486,
        0.0,
        0.02710393789774676,
        2.6020852139652106e-18,
        0.9996326207914761,
        0.0,
        -10.218894004821777,
        -0.4123312532901764,
        5.2050604820251465,
        1.0
      ],
      "name": "Skull2_low"
    },
    {
      "mesh": 6,
      "name": "Skull2_low_Sacrifice_table_Mat_0"
    },
    {
      "children": [
        19
      ],
      "matrix": [
        0.941710365113596,
        -0.33545436603846196,
        -0.025533439708574357,
        0.0,
        0.3353311270789709,
        0.9420564570691788,
        -0.009092134304634486,
        0.0,
        0.02710393789774676,
        2.6020852139652106e-18,
        0.9996326207914761,
        0.0,
        -7.559056758880615,
        -11.909796714782715,
        6.960067272186279,
        1.0
      ],
      "name": "Skull3_low"
    },
    {
      "mesh": 7,
      "name": "Skull3_low_Sacrifice_table_Mat_0"
    },
    {
      "children": [
        21
      ],
      "matrix": [
        0.941710365113596,
        -0.33545436603846196,
        -0.025533439708574357,
        0.0,
        0.3353311270789709,
        0.9420564570691788,
        -0.009092134304634486,
        0.0,
        0.02710393789774676,
        2.6020852139652106e-18,
        0.9996326207914761,
        0.0,
        6.630668640136719,
        -11.909796714782715,
        6.960067272186279,
        1.0
      ],
      "name": "Skull4_low"
    },
    {
      "mesh": 8,
      "name": "Skull4_low_Sacrifice_table_Mat_0"
    }
  ],
  "samplers": [
    {
      "magFilter": 9729,
      "minFilter": 9987,
      "wrapS": 10497,
      "wrapT": 10497
    }
  ],
  "scene": 0,
  "scenes": [
    {
      "name": "Sketchfab_Scene",
      "nodes": [
        0
      ]
    }
  ],
  "textures": [
    {
      "sampler": 0,
      "source": 0
    },
    {
      "sampler": 0,
      "source": 1
    },
    {
      "sampler": 0,
      "source": 2
    }
  ]
}
