{
  "accessors": [
    {
      "bufferView": 2,
      "componentType": 5126,
      "count": 65532,
      "max": [
        30.00006866455078,
        0.2579140067100525,
        68.24120330810547
      ],
      "min": [
        -25.541044235229492,
        -31.428098678588867,
        -77.49006652832031
      ],
      "type": "VEC3"
    },
    {
      "bufferView": 2,
      "byteOffset": 786384,
      "componentType": 5126,
      "count": 65532,
      "max": [
        0.9999971389770508,
        0.9999998807907104,
        0.9999882578849792
      ],
      "min": [
        -0.9999950528144836,
        -0.9999918341636658,
        -0.9999916553497314
      ],
      "type": "VEC3"
    },
    {
      "bufferView": 1,
      "componentType": 5126,
      "count": 65532,
      "max": [
        0.8919240236282349,
        0.9804520010948181
      ],
      "min": [
        0.019548000767827034,
        0.004244999960064888
      ],
      "type": "VEC2"
    },
    {
      "bufferView": 0,
      "componentType": 5125,
      "count": 362880,
      "type": "SCALAR"
    },
    {
      "bufferView": 2,
      "byteOffset": 1572768,
      "componentType": 5126,
      "count": 65532,
      "max": [
        30.00006866455078,
        0.1511940062046051,
        67.11627960205078
      ],
      "min": [
        -26.326295852661133,
        -31.013837814331055,
        -77.16316223144531
      ],
      "type": "VEC3"
    },
    {
      "bufferView": 2,
      "byteOffset": 2359152,
      "componentType": 5126,
      "count": 65532,
      "max": [
        0.9999843239784241,
        0.9999996423721313,
        0.9999924302101135
      ],
      "min": [
        -0.9999967217445374,
        -0.999990701675415,
        -0.999934196472168
      ],
      "type": "VEC3"
    },
    {
      "bufferView": 1,
      "byteOffset": 524256,
      "componentType": 5126,
      "count": 65532,
      "max": [
        0.9550939798355103,
        0.9804520010948181
      ],
      "min": [
        0.019548000767827034,
        0.13545100390911102
      ],
      "type": "VEC2"
    },
    {
      "bufferView": 0,
      "byteOffset": 1451520,
      "componentType": 5125,
      "count": 359769,
      "type": "SCALAR"
    },
    {
      "bufferView": 2,
      "byteOffset": 3145536,
      "componentType": 5126,
      "count": 30332,
      "max": [
        29.96898651123047,
        0.19902999699115753,
        68.91967010498047
      ],
      "min": [
        -10.731439590454102,
        -27.583120346069336,
        -41.58110809326172
      ],
      "type": "VEC3"
    },
    {
      "bufferView": 2,
      "byteOffset": 3509520,
      "componentType": 5126,
      "count": 30332,
      "max": [
        0.9999337792396545,
        0.9999058246612549,
        0.9999993443489075
      ],
      "min": [
        -0.9999135136604309,
        -0.9999064207077026,
        -0.999934196472168
      ],
      "type": "VEC3"
    },
    {
      "bufferView": 1,
      "byteOffset": 1048512,
      "componentType": 5126,
      "count": 30332,
      "max": [
        0.9553340077400208,
        0.7263320088386536
      ],
      "min": [
        0.175928995013237,
        0.056407999247312546
      ],
      "type": "VEC2"
    },
    {
      "bufferView": 0,
      "byteOffset": 2890596,
      "componentType": 5125,
      "count": 169605,
      "type": "SCALAR"
    }
  ],
  "asset": {
    "extras": {
      "author": "campkb (https://sketchfab.com/campkb)",
      "license": "CC-BY-4.0 (http://creativecommons.org/licenses/by/4.0/)",
      "source": "https://sketchfab.com/3d-models/wall-of-skulls-1-2de75d7afe4543a696f32a3ace1fd9a1",
      "title": "Wall Of Skulls 1"
    },
    "generator": "Sketchfab-12.65.0",
    "version": "2.0"
  },
  "bufferViews": [
    {
      "buffer": 0,
      "byteLength": 3569016,
      "name": "floatBufferViews",
      "target": 34963
    },
    {
      "buffer": 0,
      "byteLength": 1291168,
      "byteOffset": 3569016,
      "byteStride": 8,
      "name": "floatBufferViews",
      "target": 34962
    },
    {
      "buffer": 0,
      "byteLength": 3873504,
      "byteOffset": 4860184,
      "byteStride": 12,
      "name": "floatBufferViews",
      "target": 34962
    }
  ],
  "buffers": [
    {
      "byteLength": 8733688,
      "uri": "scene.bin"
    }
  ],
  "images": [
    {
      "uri": "textures/material_0_baseColor.jpeg"
    }
  ],
  "materials": [
    {
      "doubleSided": true,
      "name": "material_0",
      "pbrMetallicRoughness": {
        "baseColorTexture": {
          "index": 0
        },
        "metallicFactor": 0.0,
        "roughnessFactor": 0.4376586748096509
      }
    }
  ],
  "meshes": [
    {
      "name": "Object_0",
      "primitives": [
        {
          "attributes": {
            "NORMAL": 1,
            "POSITION": 0,
            "TEXCOORD_0": 2
          },
          "indices": 3,
          "material": 0,
          "mode": 4
        }
      ]
    },
    {
      "name": "Object_1",
      "primitives": [
        {
          "attributes": {
            "NORMAL": 5,
            "POSITION": 4,
            "TEXCOORD_0": 6
          },
          "indices": 7,
          "material": 0,
          "mode": 4
        }
      ]
    },
    {
      "name": "Object_2",
      "primitives": [
        {
          "attributes": {
            "NORMAL": 9,
            "POSITION": 8,
            "TEXCOORD_0": 10
          },
          "indices": 11,
          "material": 0,
          "mode": 4
        }
      ]
    }
  ],
  "nodes": [
    {
      "children": [
        1
      ],
      "matrix": [
        -2.220446049250313e-16,
        1.0,
        2.220446049250313e-16,
        0.0,
        -2.832769343193999e-16,
        2.2204460492503128e-16,
        -1.0,
        0.0,
        -1.0,
        -2.2204460492503136e-16,
        2.8327693431939985e-16,
        0.0,
        -2.4482421875,
        -6.1221160888671875,
        4.1697399114255795e-16,
        1.0
      ],
      "name": "Sketchfab_model"
    },
    {
      "children": [
        2,
        3,
        4
      ],
      "name": "Wall of Skulls 1.obj.cleaner.materialmerger.gles"
    },
    {
      "mesh": 0,
      "name": "Object_2"
    },
    {
      "mesh": 1,
      "name": "Object_3"
    },
    {
      "mesh": 2,
      "name": "Object_4"
    }
  ],
  "samplers": [
    {
      "magFilter": 9729,
      "minFilter": 9987,
      "wrapS": 10497,
      "wrapT": 10497
    }
  ],
  "scene": 0,
  "scenes": [
    {
      "name": "Sketchfab_Scene",
      "nodes": [
        0
      ]
    }
  ],
  "textures": [
    {
      "sampler": 0,
      "source": 0
    }
  ]
}
