{
  "accessors": [
    {
      "bufferView": 2,
      "componentType": 5126,
      "count": 3011,
      "max": [
        0.9681645631790161,
        0.08156903833150864,
        1.8745568990707397
      ],
      "min": [
        -0.9667959809303284,
        -0.8280174732208252,
        -1.0443309545516968
      ],
      "type": "VEC3"
    },
    {
      "bufferView": 2,
      "byteOffset": 36132,
      "componentType": 5126,
      "count": 3011,
      "max": [
        0.9800909757614136,
        0.9998900294303894,
        0.9630497097969055
      ],
      "min": [
        -0.9969040751457214,
        -0.9999997019767761,
        -0.9977220296859741
      ],
      "type": "VEC3"
    },
    {
      "bufferView": 1,
      "componentType": 5126,
      "count": 3011,
      "max": [
        0.9400794506072998,
        1.0074800252914429
      ],
      "min": [
        0.007551252841949463,
        0.007480025291442871
      ],
      "type": "VEC2"
    },
    {
      "bufferView": 1,
      "byteOffset": 24088,
      "componentType": 5126,
      "count": 3011,
      "max": [
        0.9400794506072998,
        1.0074800252914429
      ],
      "min": [
        0.007551252841949463,
        0.007480025291442871
      ],
      "type": "VEC2"
    },
    {
      "bufferView": 0,
      "componentType": 5125,
      "count": 14448,
      "type": "SCALAR"
    },
    {
      "bufferView": 2,
      "byteOffset": 72264,
      "componentType": 5126,
      "count": 4608,
      "max": [
        2.441427707672119,
        1.1462830305099487,
        2.396235704421997
      ],
      "min": [
        -2.481161117553711,
        -1.6051838397979736,
        -2.4148850440979004
      ],
      "type": "VEC3"
    },
    {
      "bufferView": 2,
      "byteOffset": 127560,
      "componentType": 5126,
      "count": 4608,
      "max": [
        0.9961643815040588,
        0.9988592863082886,
        0.9996387362480164
      ],
      "min": [
        -0.9960548877716064,
        -0.9834954142570496,
        -0.998933732509613
      ],
      "type": "VEC3"
    },
    {
      "bufferView": 3,
      "componentType": 5126,
      "count": 4608,
      "max": [
        0.9999956488609314,
        0.8507483601570129,
        0.7431045770645142,
        1.0
      ],
      "min": [
        -0.8403592705726624,
        -0.8200904726982117,
        -0.9999999403953552,
        -1.0
      ],
      "type": "VEC4"
    },
    {
      "bufferView": 1,
      "byteOffset": 48176,
      "componentType": 5126,
      "count": 4608,
      "max": [
        0.9908537864685059,
        0.9873181581497192
      ],
      "min": [
        -0.0023952722549438477,
        0.012093037366867065
      ],
      "type": "VEC2"
    },
    {
      "bufferView": 1,
      "byteOffset": 85040,
      "componentType": 5126,
      "count": 4608,
      "max": [
        0.9908537864685059,
        0.9873181581497192
      ],
      "min": [
        -0.0023952722549438477,
        0.012093037366867065
      ],
      "type": "VEC2"
    },
    {
      "bufferView": 0,
      "byteOffset": 57792,
      "componentType": 5125,
      "count": 6912,
      "type": "SCALAR"
    },
    {
      "bufferView": 2,
      "byteOffset": 182856,
      "componentType": 5126,
      "count": 809,
      "max": [
        0.7577598094940186,
        0.29496869444847107,
        0.7577598094940186
      ],
      "min": [
        -0.7577598094940186,
        0.015794312581419945,
        -0.7577597498893738
      ],
      "type": "VEC3"
    },
    {
      "bufferView": 2,
      "byteOffset": 192564,
      "componentType": 5126,
      "count": 809,
      "max": [
        0.9976416230201721,
        1.0,
        0.9976416230201721
      ],
      "min": [
        -0.9976416230201721,
        -0.1961136907339096,
        -0.9976415634155273
      ],
      "type": "VEC3"
    },
    {
      "bufferView": 3,
      "byteOffset": 73728,
      "componentType": 5126,
      "count": 809,
      "max": [
        0.7688811421394348,
        0.9967834949493408,
        0.9891275763511658,
        -1.0
      ],
      "min": [
        -0.545623779296875,
        -0.9967849850654602,
        -0.21904341876506805,
        -1.0
      ],
      "type": "VEC4"
    },
    {
      "bufferView": 1,
      "byteOffset": 121904,
      "componentType": 5126,
      "count": 809,
      "max": [
        1.1318930387496948,
        1.4555535316467285
      ],
      "min": [
        -0.15311840176582336,
        -0.45555341243743896
      ],
      "type": "VEC2"
    },
    {
      "bufferView": 1,
      "byteOffset": 128376,
      "componentType": 5126,
      "count": 809,
      "max": [
        1.1318930387496948,
        1.4555535316467285
      ],
      "min": [
        -0.15311840176582336,
        -0.45555341243743896
      ],
      "type": "VEC2"
    },
    {
      "bufferView": 1,
      "byteOffset": 134848,
      "componentType": 5126,
      "count": 809,
      "max": [
        1.1318930387496948,
        1.4555535316467285
      ],
      "min": [
        -0.15311840176582336,
        -0.45555341243743896
      ],
      "type": "VEC2"
    },
    {
      "bufferView": 0,
      "byteOffset": 85440,
      "componentType": 5125,
      "count": 3840,
      "type": "SCALAR"
    },
    {
      "bufferView": 2,
      "byteOffset": 202272,
      "componentType": 5126,
      "count": 24,
      "max": [
        1.0,
        1.0,
        1.0
      ],
      "min": [
        -1.0,
        -1.0,
        -1.0
      ],
      "type": "VEC3"
    },
    {
      "bufferView": 2,
      "byteOffset": 202560,
      "componentType": 5126,
      "count": 24,
      "max": [
        1.0,
        1.0,
        1.0
      ],
      "min": [
        -1.0,
        -1.0,
        -1.0
      ],
      "type": "VEC3"
    },
    {
      "bufferView": 1,
      "byteOffset": 141320,
      "componentType": 5126,
      "count": 24,
      "max": [
        0.875,
        1.0
      ],
      "min": [
        0.125,
        0.0
      ],
      "type": "VEC2"
    },
    {
      "bufferView": 0,
      "byteOffset": 100800,
      "componentType": 5125,
      "count": 36,
      "type": "SCALAR"
    }
  ],
  "asset": {
    "extras": {
      "author": "3DMAN (https://sketchfab.com/3dmanx888)",
      "license": "CC-BY-4.0 (http://creativecommons.org/licenses/by/4.0/)",
      "source": "https://sketchfab.com/3d-models/hell-arena-b24597cc453a4919a97037be03abf38d",
      "title": "Hell arena"
    },
    "generator": "Sketchfab-15.1.0",
    "version": "2.0"
  },
  "bufferViews": [
    {
      "buffer": 0,
      "byteLength": 100944,
      "name": "floatBufferViews",
      "target": 34963
    },
    {
      "buffer": 0,
      "byteLength": 141512,
      "byteOffset": 100944,
      "byteStride": 8,
      "name": "floatBufferViews",
      "target": 34962
    },
    {
      "buffer": 0,
      "byteLength": 202848,
      "byteOffset": 242456,
      "byteStride": 12,
      "name": "floatBufferViews",
      "target": 34962
    },
    {
      "buffer": 0,
      "byteLength": 86672,
      "byteOffset": 445304,
      "byteStride": 16,
      "name": "floatBufferViews",
      "target": 34962
    }
  ],
  "buffers": [
    {
      "byteLength": 531976,
      "uri": "scene.bin"
    }
  ],
  "extensionsUsed": [
    "KHR_materials_specular",
    "KHR_materials_emissive_strength"
  ],
  "images": [
    {
      "uri": "textures/Material_baseColor.jpeg"
    },
    {
      "uri": "textures/Material.001_normal.jpeg"
    },
    {
      "uri": "textures/Material.003_baseColor.jpeg"
    },
    {
      "uri": "textures/Material.003_emissive.png"
    }
  ],
  "materials": [
    {
      "doubleSided": true,
      "extensions": {
        "KHR_materials_specular": {
          "specularColorFactor": [
            1.0,
            1.0,
            1.0
          ],
          "specularFactor": 0.0
        }
      },
      "name": "Material",
      "pbrMetallicRoughness": {
        "baseColorFactor": [
          0.4373346661627921,
          0.4373346661627921,
          0.4373346661627921,
          1.0
        ],
        "baseColorTexture": {
          "index": 0
        },
        "metallicFactor": 0.0
      }
    },
    {
      "doubleSided": true,
      "extensions": {
        "KHR_materials_specular": {
          "specularColorFactor": [
            1.0,
            1.0,
            1.0
          ],
          "specularFactor": 0.0
        }
      },
      "name": "Material.001",
      "normalTexture": {
        "index": 1,
        "scale": 0.0
      },
      "pbrMetallicRoughness": {
        "baseColorFactor": [
          0.6567639063280954,
          0.6567639063280954,
          0.6567639063280954,
          1.0
        ],
        "baseColorTexture": {
          "index": 0
        },
        "metallicFactor": 0.0
      }
    },
    {
      "emissiveFactor": [
        1.0,
        1.0,
        1.0
      ],
      "emissiveTexture": {
        "index": 3
      },
      "extensions": {
        "KHR_materials_emissive_strength": {
          "emissiveStrength": 10.0
        }
      },
      "name": "Material.003",
      "normalTexture": {
        "index": 1,
        "scale": 0.0
      },
      "pbrMetallicRoughness": {
        "baseColorTexture": {
          "index": 2
        },
        "metallicFactor": 0.0
      }
    },
    {
      "alphaMode": "BLEND",
      "doubleSided": true,
      "extensions": {
        "KHR_materials_specular": {
          "specularColorFactor": [
            1.0,
            1.0,
            1.0
          ],
          "specularFactor": 0.0
        }
      },
      "name": "Material.004",
      "pbrMetallicRoughness": {
        "baseColorFactor": [
          0.0,
          0.0,
          0.0,
          0.0
        ],
        "metallicFactor": 0.0
      }
    }
  ],
  "meshes": [
    {
      "name": "Object_0",
      "primitives": [
        {
          "attributes": {
            "NORMAL": 1,
            "POSITION": 0,
            "TEXCOORD_0": 2,
            "TEXCOORD_1": 3
          },
          "indices": 4,
          "material": 0,
          "mode": 4
        }
      ]
    },
    {
      "name": "Object_1",
      "primitives": [
        {
          "attributes": {
            "NORMAL": 6,
            "POSITION": 5,
            "TANGENT": 7,
            "TEXCOORD_0": 8,
            "TEXCOORD_1": 9
          },
          "indices": 10,
          "material": 1,
          "mode": 4
        }
      ]
    },
    {
      "name": "Object_2",
      "primitives": [
        {
          "attributes": {
            "NORMAL": 12,
            "POSITION": 11,
            "TANGENT": 13,
            "TEXCOORD_0": 14,
            "TEXCOORD_1": 15,
            "TEXCOORD_2": 16
          },
          "indices": 17,
          "material": 2,
          "mode": 4
        }
      ]
    },
    {
      "name": "Object_3",
      "primitives": [
        {
          "attributes": {
            "NORMAL": 19,
            "POSITION": 18,
            "TEXCOORD_0": 20
          },
          "indices": 21,
          "material": 3,
          "mode": 4
        }
      ]
    }
  ],
  "nodes": [
    {
      "children": [
        1
      ],
      "matrix": [
        1.0,
        0.0,
        0.0,
        0.0,
        0.0,
        2.220446049250313e-16,
        -1.0,
        0.0,
        0.0,
        1.0,
        2.220446049250313e-16,
        0.0,
        0.0,
        0.0,
        0.0,
        1.0
      ],
      "name": "Sketchfab_model"
    },
    {
      "children": [
        2
      ],
      "name": "root"
    },
    {
      "children": [
        3,
        5,
        7,
        9
      ],
      "matrix": [
        1.0,
        0.0,
        0.0,
        0.0,
        0.0,
        2.220446049250313e-16,
        1.0,
        0.0,
        0.0,
        -1.0,
        2.220446049250313e-16,
        0.0,
        0.0,
        0.0,
        0.0,
        1.0
      ],
      "name": "GLTF_SceneRootNode"
    },
    {
      "children": [
        4
      ],
      "name": "Plane_2"
    },
    {
      "mesh": 0,
      "name": "Object_4"
    },
    {
      "children": [
        6
      ],
      "matrix": [
        1.0,
        0.0,
        0.0,
        0.0,
        0.0,
        1.0,
        0.0,
        0.0,
        0.0,
        0.0,
        1.0,
        0.0,
        0.0,
        -0.0825393795967102,
        0.0,
        1.0
      ],
      "name": "Circle_3"
    },
    {
      "mesh": 1,
      "name": "Object_6"
    },
    {
      "children": [
        8
      ],
      "matrix": [
        3.076620101928711,
        0.0,
        0.0,
        0.0,
        0.0,
        3.076620101928711,
        0.0,
        0.0,
        0.0,
        0.0,
        3.076620101928711,
        0.0,
        0.0,
        -1.6967118978500366,
        0.0,
        1.0
      ],
      "name": "Circle.001_4"
    },
    {
      "mesh": 2,
      "name": "Object_8"
    },
    {
      "children": [
        10
      ],
      "matrix": [
        2.5554332733154297,
        0.0,
        0.0,
        0.0,
        0.0,
        1.2508701086044312,
        0.0,
        0.0,
        0.0,
        0.0,
        2.5554332733154297,
        0.0,
        0.0,
        0.2699398100376129,
        0.0,
        1.0
      ],
      "name": "Cube_6"
    },
    {
      "mesh": 3,
      "name": "Object_10"
    }
  ],
  "samplers": [
    {
      "magFilter": 9729,
      "minFilter": 9987,
      "wrapS": 10497,
      "wrapT": 10497
    }
  ],
  "scene": 0,
  "scenes": [
    {
      "name": "Sketchfab_Scene",
      "nodes": [
        0
      ]
    }
  ],
  "textures": [
    {
      "sampler": 0,
      "source": 0
    },
    {
      "sampler": 0,
      "source": 1
    },
    {
      "sampler": 0,
      "source": 2
    },
    {
      "sampler": 0,
      "source": 3
    }
  ]
}
